<mxfile host="app.diagrams.net" modified="2023-08-02T16:38:45.477Z" agent="Mozilla/5.0 (Windows NT 10.0; Win64; x64) AppleWebKit/537.36 (KHTML, like Gecko) Chrome/115.0.0.0 Safari/537.36" etag="DQVzeEf7S_GeGmwNn6OW" version="21.6.6" type="github">
  <diagram id="prtHgNgQTEPvFCAcTncT" name="Page-1">
    <mxGraphModel dx="3452" dy="1355" grid="1" gridSize="10" guides="1" tooltips="1" connect="1" arrows="1" fold="1" page="1" pageScale="1" pageWidth="827" pageHeight="1169" math="0" shadow="0">
      <root>
        <mxCell id="0" />
        <mxCell id="1" parent="0" />
        <mxCell id="rcNtdZ8EUzeAehjGoCMw-40" style="edgeStyle=orthogonalEdgeStyle;rounded=0;orthogonalLoop=1;jettySize=auto;html=1;exitX=0.5;exitY=1;exitDx=0;exitDy=0;entryX=0.5;entryY=0;entryDx=0;entryDy=0;" edge="1" parent="1" source="rcNtdZ8EUzeAehjGoCMw-4" target="rcNtdZ8EUzeAehjGoCMw-37">
          <mxGeometry relative="1" as="geometry" />
        </mxCell>
        <mxCell id="rcNtdZ8EUzeAehjGoCMw-41" style="edgeStyle=orthogonalEdgeStyle;rounded=0;orthogonalLoop=1;jettySize=auto;html=1;exitX=0.5;exitY=1;exitDx=0;exitDy=0;entryX=0.5;entryY=0;entryDx=0;entryDy=0;" edge="1" parent="1" source="rcNtdZ8EUzeAehjGoCMw-4" target="rcNtdZ8EUzeAehjGoCMw-36">
          <mxGeometry relative="1" as="geometry" />
        </mxCell>
        <mxCell id="rcNtdZ8EUzeAehjGoCMw-51" style="edgeStyle=orthogonalEdgeStyle;rounded=0;orthogonalLoop=1;jettySize=auto;html=1;exitX=0.5;exitY=1;exitDx=0;exitDy=0;entryX=0.5;entryY=0;entryDx=0;entryDy=0;" edge="1" parent="1" source="rcNtdZ8EUzeAehjGoCMw-4" target="rcNtdZ8EUzeAehjGoCMw-50">
          <mxGeometry relative="1" as="geometry" />
        </mxCell>
        <mxCell id="rcNtdZ8EUzeAehjGoCMw-4" value="娱乐" style="rounded=1;whiteSpace=wrap;html=1;fontSize=22;" vertex="1" parent="1">
          <mxGeometry x="314" y="220" width="120" height="60" as="geometry" />
        </mxCell>
        <mxCell id="rcNtdZ8EUzeAehjGoCMw-2" value="首页" style="rounded=1;whiteSpace=wrap;html=1;fontSize=22;" vertex="1" parent="1">
          <mxGeometry x="-626" y="220" width="120" height="60" as="geometry" />
        </mxCell>
        <mxCell id="rcNtdZ8EUzeAehjGoCMw-52" style="edgeStyle=orthogonalEdgeStyle;rounded=0;orthogonalLoop=1;jettySize=auto;html=1;exitX=0.5;exitY=1;exitDx=0;exitDy=0;entryX=0.5;entryY=0;entryDx=0;entryDy=0;" edge="1" parent="1" source="rcNtdZ8EUzeAehjGoCMw-1" target="rcNtdZ8EUzeAehjGoCMw-2">
          <mxGeometry relative="1" as="geometry" />
        </mxCell>
        <mxCell id="rcNtdZ8EUzeAehjGoCMw-53" style="edgeStyle=orthogonalEdgeStyle;rounded=0;orthogonalLoop=1;jettySize=auto;html=1;exitX=0.5;exitY=1;exitDx=0;exitDy=0;entryX=0.5;entryY=0;entryDx=0;entryDy=0;" edge="1" parent="1" source="rcNtdZ8EUzeAehjGoCMw-1" target="rcNtdZ8EUzeAehjGoCMw-6">
          <mxGeometry relative="1" as="geometry" />
        </mxCell>
        <mxCell id="rcNtdZ8EUzeAehjGoCMw-54" style="edgeStyle=orthogonalEdgeStyle;rounded=0;orthogonalLoop=1;jettySize=auto;html=1;exitX=0.5;exitY=1;exitDx=0;exitDy=0;entryX=0.5;entryY=0;entryDx=0;entryDy=0;" edge="1" parent="1" source="rcNtdZ8EUzeAehjGoCMw-1" target="rcNtdZ8EUzeAehjGoCMw-4">
          <mxGeometry relative="1" as="geometry" />
        </mxCell>
        <mxCell id="rcNtdZ8EUzeAehjGoCMw-55" style="edgeStyle=orthogonalEdgeStyle;rounded=0;orthogonalLoop=1;jettySize=auto;html=1;exitX=0.5;exitY=1;exitDx=0;exitDy=0;entryX=0.5;entryY=0;entryDx=0;entryDy=0;" edge="1" parent="1" source="rcNtdZ8EUzeAehjGoCMw-1" target="rcNtdZ8EUzeAehjGoCMw-29">
          <mxGeometry relative="1" as="geometry" />
        </mxCell>
        <mxCell id="rcNtdZ8EUzeAehjGoCMw-56" style="edgeStyle=orthogonalEdgeStyle;rounded=0;orthogonalLoop=1;jettySize=auto;html=1;exitX=0.5;exitY=1;exitDx=0;exitDy=0;entryX=0.5;entryY=0;entryDx=0;entryDy=0;" edge="1" parent="1" source="rcNtdZ8EUzeAehjGoCMw-1" target="rcNtdZ8EUzeAehjGoCMw-31">
          <mxGeometry relative="1" as="geometry" />
        </mxCell>
        <mxCell id="rcNtdZ8EUzeAehjGoCMw-57" style="edgeStyle=orthogonalEdgeStyle;rounded=0;orthogonalLoop=1;jettySize=auto;html=1;exitX=0.5;exitY=1;exitDx=0;exitDy=0;entryX=0.5;entryY=0;entryDx=0;entryDy=0;" edge="1" parent="1" source="rcNtdZ8EUzeAehjGoCMw-1" target="rcNtdZ8EUzeAehjGoCMw-43">
          <mxGeometry relative="1" as="geometry" />
        </mxCell>
        <mxCell id="rcNtdZ8EUzeAehjGoCMw-58" style="edgeStyle=orthogonalEdgeStyle;rounded=0;orthogonalLoop=1;jettySize=auto;html=1;exitX=0.5;exitY=1;exitDx=0;exitDy=0;entryX=0.5;entryY=0;entryDx=0;entryDy=0;" edge="1" parent="1" source="rcNtdZ8EUzeAehjGoCMw-1" target="rcNtdZ8EUzeAehjGoCMw-33">
          <mxGeometry relative="1" as="geometry" />
        </mxCell>
        <mxCell id="rcNtdZ8EUzeAehjGoCMw-59" style="edgeStyle=orthogonalEdgeStyle;rounded=0;orthogonalLoop=1;jettySize=auto;html=1;exitX=0.5;exitY=1;exitDx=0;exitDy=0;entryX=0.5;entryY=0;entryDx=0;entryDy=0;" edge="1" parent="1" source="rcNtdZ8EUzeAehjGoCMw-1" target="rcNtdZ8EUzeAehjGoCMw-8">
          <mxGeometry relative="1" as="geometry" />
        </mxCell>
        <mxCell id="rcNtdZ8EUzeAehjGoCMw-100" style="edgeStyle=orthogonalEdgeStyle;rounded=0;orthogonalLoop=1;jettySize=auto;html=1;exitX=0.5;exitY=1;exitDx=0;exitDy=0;" edge="1" parent="1" source="rcNtdZ8EUzeAehjGoCMw-1" target="rcNtdZ8EUzeAehjGoCMw-96">
          <mxGeometry relative="1" as="geometry" />
        </mxCell>
        <mxCell id="rcNtdZ8EUzeAehjGoCMw-1" value="&lt;b&gt;&lt;font style=&quot;font-size: 34px;&quot;&gt;GGBlog 博客（整体规划）&lt;/font&gt;&lt;/b&gt;" style="rounded=1;whiteSpace=wrap;html=1;" vertex="1" parent="1">
          <mxGeometry y="10" width="550" height="100" as="geometry" />
        </mxCell>
        <mxCell id="rcNtdZ8EUzeAehjGoCMw-23" style="edgeStyle=orthogonalEdgeStyle;rounded=0;orthogonalLoop=1;jettySize=auto;html=1;entryX=0.5;entryY=0;entryDx=0;entryDy=0;fontSize=22;" edge="1" parent="1" source="rcNtdZ8EUzeAehjGoCMw-6" target="rcNtdZ8EUzeAehjGoCMw-21">
          <mxGeometry relative="1" as="geometry" />
        </mxCell>
        <mxCell id="rcNtdZ8EUzeAehjGoCMw-25" style="edgeStyle=orthogonalEdgeStyle;rounded=0;orthogonalLoop=1;jettySize=auto;html=1;entryX=0.5;entryY=0;entryDx=0;entryDy=0;fontSize=22;" edge="1" parent="1" source="rcNtdZ8EUzeAehjGoCMw-6" target="rcNtdZ8EUzeAehjGoCMw-19">
          <mxGeometry relative="1" as="geometry">
            <Array as="points">
              <mxPoint x="-286" y="350" />
              <mxPoint x="-446" y="350" />
            </Array>
          </mxGeometry>
        </mxCell>
        <mxCell id="rcNtdZ8EUzeAehjGoCMw-27" style="edgeStyle=orthogonalEdgeStyle;rounded=0;orthogonalLoop=1;jettySize=auto;html=1;exitX=0.5;exitY=1;exitDx=0;exitDy=0;entryX=0.5;entryY=0;entryDx=0;entryDy=0;fontSize=22;" edge="1" parent="1" source="rcNtdZ8EUzeAehjGoCMw-6" target="rcNtdZ8EUzeAehjGoCMw-22">
          <mxGeometry relative="1" as="geometry">
            <Array as="points">
              <mxPoint x="-286" y="350" />
              <mxPoint x="-156" y="350" />
            </Array>
          </mxGeometry>
        </mxCell>
        <mxCell id="rcNtdZ8EUzeAehjGoCMw-6" value="博客" style="rounded=1;whiteSpace=wrap;html=1;fontSize=22;" vertex="1" parent="1">
          <mxGeometry x="-346" y="220" width="120" height="60" as="geometry" />
        </mxCell>
        <mxCell id="rcNtdZ8EUzeAehjGoCMw-8" value="说说" style="rounded=1;whiteSpace=wrap;html=1;fontSize=22;" vertex="1" parent="1">
          <mxGeometry x="-30" y="220" width="120" height="60" as="geometry" />
        </mxCell>
        <mxCell id="rcNtdZ8EUzeAehjGoCMw-19" value="归档" style="rounded=1;whiteSpace=wrap;html=1;fontSize=22;" vertex="1" parent="1">
          <mxGeometry x="-506" y="430" width="120" height="60" as="geometry" />
        </mxCell>
        <mxCell id="rcNtdZ8EUzeAehjGoCMw-21" value="分类" style="rounded=1;whiteSpace=wrap;html=1;fontSize=22;" vertex="1" parent="1">
          <mxGeometry x="-346" y="430" width="120" height="60" as="geometry" />
        </mxCell>
        <mxCell id="rcNtdZ8EUzeAehjGoCMw-22" value="标签" style="rounded=1;whiteSpace=wrap;html=1;fontSize=22;" vertex="1" parent="1">
          <mxGeometry x="-186" y="430" width="120" height="60" as="geometry" />
        </mxCell>
        <mxCell id="rcNtdZ8EUzeAehjGoCMw-29" value="友链" style="rounded=1;whiteSpace=wrap;html=1;fontSize=22;" vertex="1" parent="1">
          <mxGeometry x="1030" y="220" width="120" height="60" as="geometry" />
        </mxCell>
        <mxCell id="rcNtdZ8EUzeAehjGoCMw-31" value="关于" style="rounded=1;whiteSpace=wrap;html=1;fontSize=22;" vertex="1" parent="1">
          <mxGeometry x="1233" y="220" width="120" height="60" as="geometry" />
        </mxCell>
        <mxCell id="rcNtdZ8EUzeAehjGoCMw-47" style="edgeStyle=orthogonalEdgeStyle;rounded=0;orthogonalLoop=1;jettySize=auto;html=1;exitX=0.5;exitY=1;exitDx=0;exitDy=0;entryX=0.5;entryY=0;entryDx=0;entryDy=0;" edge="1" parent="1" source="rcNtdZ8EUzeAehjGoCMw-33" target="rcNtdZ8EUzeAehjGoCMw-42">
          <mxGeometry relative="1" as="geometry" />
        </mxCell>
        <mxCell id="rcNtdZ8EUzeAehjGoCMw-48" style="edgeStyle=orthogonalEdgeStyle;rounded=0;orthogonalLoop=1;jettySize=auto;html=1;exitX=0.5;exitY=1;exitDx=0;exitDy=0;entryX=0.5;entryY=0;entryDx=0;entryDy=0;" edge="1" parent="1" source="rcNtdZ8EUzeAehjGoCMw-33" target="rcNtdZ8EUzeAehjGoCMw-44">
          <mxGeometry relative="1" as="geometry" />
        </mxCell>
        <mxCell id="rcNtdZ8EUzeAehjGoCMw-49" style="edgeStyle=orthogonalEdgeStyle;rounded=0;orthogonalLoop=1;jettySize=auto;html=1;exitX=0.5;exitY=1;exitDx=0;exitDy=0;entryX=0.5;entryY=0;entryDx=0;entryDy=0;" edge="1" parent="1" source="rcNtdZ8EUzeAehjGoCMw-33" target="rcNtdZ8EUzeAehjGoCMw-46">
          <mxGeometry relative="1" as="geometry" />
        </mxCell>
        <mxCell id="rcNtdZ8EUzeAehjGoCMw-33" value="个人中心" style="rounded=1;whiteSpace=wrap;html=1;fontSize=22;" vertex="1" parent="1">
          <mxGeometry x="1600" y="220" width="120" height="60" as="geometry" />
        </mxCell>
        <mxCell id="rcNtdZ8EUzeAehjGoCMw-36" value="&lt;font color=&quot;#ff3333&quot;&gt;写作&lt;/font&gt;" style="rounded=1;whiteSpace=wrap;html=1;fontSize=22;" vertex="1" parent="1">
          <mxGeometry x="314" y="420" width="120" height="60" as="geometry" />
        </mxCell>
        <mxCell id="rcNtdZ8EUzeAehjGoCMw-37" value="相册" style="rounded=1;whiteSpace=wrap;html=1;fontSize=22;" vertex="1" parent="1">
          <mxGeometry x="154" y="420" width="120" height="60" as="geometry" />
        </mxCell>
        <mxCell id="rcNtdZ8EUzeAehjGoCMw-42" value="个人信息" style="rounded=1;whiteSpace=wrap;html=1;fontSize=22;" vertex="1" parent="1">
          <mxGeometry x="1440" y="430" width="120" height="60" as="geometry" />
        </mxCell>
        <mxCell id="rcNtdZ8EUzeAehjGoCMw-43" value="登录" style="rounded=1;whiteSpace=wrap;html=1;fontSize=22;" vertex="1" parent="1">
          <mxGeometry x="1420" y="220" width="120" height="60" as="geometry" />
        </mxCell>
        <mxCell id="rcNtdZ8EUzeAehjGoCMw-44" value="修改密码" style="rounded=1;whiteSpace=wrap;html=1;fontSize=22;" vertex="1" parent="1">
          <mxGeometry x="1600" y="430" width="120" height="60" as="geometry" />
        </mxCell>
        <mxCell id="rcNtdZ8EUzeAehjGoCMw-46" value="注销" style="rounded=1;whiteSpace=wrap;html=1;fontSize=22;" vertex="1" parent="1">
          <mxGeometry x="1760" y="430" width="120" height="60" as="geometry" />
        </mxCell>
        <mxCell id="rcNtdZ8EUzeAehjGoCMw-50" value="&lt;font color=&quot;#ff3333&quot;&gt;好词好句&lt;/font&gt;" style="rounded=1;whiteSpace=wrap;html=1;fontSize=22;" vertex="1" parent="1">
          <mxGeometry x="474" y="420" width="120" height="60" as="geometry" />
        </mxCell>
        <mxCell id="rcNtdZ8EUzeAehjGoCMw-63" value="首页" style="rounded=1;whiteSpace=wrap;html=1;fontSize=22;" vertex="1" parent="1">
          <mxGeometry x="-510" y="1550" width="120" height="60" as="geometry" />
        </mxCell>
        <mxCell id="rcNtdZ8EUzeAehjGoCMw-64" style="edgeStyle=orthogonalEdgeStyle;rounded=0;orthogonalLoop=1;jettySize=auto;html=1;exitX=0.5;exitY=1;exitDx=0;exitDy=0;entryX=0.5;entryY=0;entryDx=0;entryDy=0;" edge="1" parent="1" source="rcNtdZ8EUzeAehjGoCMw-72" target="rcNtdZ8EUzeAehjGoCMw-63">
          <mxGeometry relative="1" as="geometry" />
        </mxCell>
        <mxCell id="rcNtdZ8EUzeAehjGoCMw-65" style="edgeStyle=orthogonalEdgeStyle;rounded=0;orthogonalLoop=1;jettySize=auto;html=1;exitX=0.5;exitY=1;exitDx=0;exitDy=0;entryX=0.5;entryY=0;entryDx=0;entryDy=0;" edge="1" parent="1" source="rcNtdZ8EUzeAehjGoCMw-72" target="rcNtdZ8EUzeAehjGoCMw-76">
          <mxGeometry relative="1" as="geometry" />
        </mxCell>
        <mxCell id="rcNtdZ8EUzeAehjGoCMw-66" style="edgeStyle=orthogonalEdgeStyle;rounded=0;orthogonalLoop=1;jettySize=auto;html=1;exitX=0.5;exitY=1;exitDx=0;exitDy=0;" edge="1" parent="1" source="rcNtdZ8EUzeAehjGoCMw-72" target="rcNtdZ8EUzeAehjGoCMw-88">
          <mxGeometry relative="1" as="geometry">
            <mxPoint x="490" y="1550" as="targetPoint" />
          </mxGeometry>
        </mxCell>
        <mxCell id="rcNtdZ8EUzeAehjGoCMw-67" style="edgeStyle=orthogonalEdgeStyle;rounded=0;orthogonalLoop=1;jettySize=auto;html=1;exitX=0.5;exitY=1;exitDx=0;exitDy=0;entryX=0.5;entryY=0;entryDx=0;entryDy=0;" edge="1" parent="1" source="rcNtdZ8EUzeAehjGoCMw-72" target="rcNtdZ8EUzeAehjGoCMw-81">
          <mxGeometry relative="1" as="geometry" />
        </mxCell>
        <mxCell id="rcNtdZ8EUzeAehjGoCMw-68" style="edgeStyle=orthogonalEdgeStyle;rounded=0;orthogonalLoop=1;jettySize=auto;html=1;exitX=0.5;exitY=1;exitDx=0;exitDy=0;entryX=0.5;entryY=0;entryDx=0;entryDy=0;" edge="1" parent="1" source="rcNtdZ8EUzeAehjGoCMw-72" target="rcNtdZ8EUzeAehjGoCMw-82">
          <mxGeometry relative="1" as="geometry" />
        </mxCell>
        <mxCell id="rcNtdZ8EUzeAehjGoCMw-69" style="edgeStyle=orthogonalEdgeStyle;rounded=0;orthogonalLoop=1;jettySize=auto;html=1;exitX=0.5;exitY=1;exitDx=0;exitDy=0;entryX=0.5;entryY=0;entryDx=0;entryDy=0;" edge="1" parent="1" source="rcNtdZ8EUzeAehjGoCMw-72" target="rcNtdZ8EUzeAehjGoCMw-90">
          <mxGeometry relative="1" as="geometry" />
        </mxCell>
        <mxCell id="rcNtdZ8EUzeAehjGoCMw-70" style="edgeStyle=orthogonalEdgeStyle;rounded=0;orthogonalLoop=1;jettySize=auto;html=1;exitX=0.5;exitY=1;exitDx=0;exitDy=0;entryX=0.5;entryY=0;entryDx=0;entryDy=0;" edge="1" parent="1" source="rcNtdZ8EUzeAehjGoCMw-72" target="rcNtdZ8EUzeAehjGoCMw-86">
          <mxGeometry relative="1" as="geometry" />
        </mxCell>
        <mxCell id="rcNtdZ8EUzeAehjGoCMw-71" style="edgeStyle=orthogonalEdgeStyle;rounded=0;orthogonalLoop=1;jettySize=auto;html=1;exitX=0.5;exitY=1;exitDx=0;exitDy=0;entryX=0.5;entryY=0;entryDx=0;entryDy=0;" edge="1" parent="1" source="rcNtdZ8EUzeAehjGoCMw-72" target="rcNtdZ8EUzeAehjGoCMw-77">
          <mxGeometry relative="1" as="geometry" />
        </mxCell>
        <mxCell id="rcNtdZ8EUzeAehjGoCMw-72" value="&lt;b&gt;&lt;font style=&quot;font-size: 34px;&quot;&gt;GGBlog 博客 1.0&lt;/font&gt;&lt;/b&gt;" style="rounded=1;whiteSpace=wrap;html=1;" vertex="1" parent="1">
          <mxGeometry x="396" y="1340" width="524" height="100" as="geometry" />
        </mxCell>
        <mxCell id="rcNtdZ8EUzeAehjGoCMw-73" style="edgeStyle=orthogonalEdgeStyle;rounded=0;orthogonalLoop=1;jettySize=auto;html=1;entryX=0.5;entryY=0;entryDx=0;entryDy=0;fontSize=22;" edge="1" parent="1" source="rcNtdZ8EUzeAehjGoCMw-76" target="rcNtdZ8EUzeAehjGoCMw-79">
          <mxGeometry relative="1" as="geometry" />
        </mxCell>
        <mxCell id="rcNtdZ8EUzeAehjGoCMw-74" style="edgeStyle=orthogonalEdgeStyle;rounded=0;orthogonalLoop=1;jettySize=auto;html=1;entryX=0.5;entryY=0;entryDx=0;entryDy=0;fontSize=22;" edge="1" parent="1" source="rcNtdZ8EUzeAehjGoCMw-76" target="rcNtdZ8EUzeAehjGoCMw-78">
          <mxGeometry relative="1" as="geometry">
            <Array as="points">
              <mxPoint x="-170" y="1680" />
              <mxPoint x="-330" y="1680" />
            </Array>
          </mxGeometry>
        </mxCell>
        <mxCell id="rcNtdZ8EUzeAehjGoCMw-75" style="edgeStyle=orthogonalEdgeStyle;rounded=0;orthogonalLoop=1;jettySize=auto;html=1;exitX=0.5;exitY=1;exitDx=0;exitDy=0;entryX=0.5;entryY=0;entryDx=0;entryDy=0;fontSize=22;" edge="1" parent="1" source="rcNtdZ8EUzeAehjGoCMw-76" target="rcNtdZ8EUzeAehjGoCMw-80">
          <mxGeometry relative="1" as="geometry">
            <Array as="points">
              <mxPoint x="-170" y="1680" />
              <mxPoint x="-40" y="1680" />
            </Array>
          </mxGeometry>
        </mxCell>
        <mxCell id="rcNtdZ8EUzeAehjGoCMw-76" value="博客" style="rounded=1;whiteSpace=wrap;html=1;fontSize=22;" vertex="1" parent="1">
          <mxGeometry x="-230" y="1550" width="120" height="60" as="geometry" />
        </mxCell>
        <mxCell id="rcNtdZ8EUzeAehjGoCMw-77" value="说说" style="rounded=1;whiteSpace=wrap;html=1;fontSize=22;" vertex="1" parent="1">
          <mxGeometry x="86" y="1550" width="120" height="60" as="geometry" />
        </mxCell>
        <mxCell id="rcNtdZ8EUzeAehjGoCMw-78" value="归档" style="rounded=1;whiteSpace=wrap;html=1;fontSize=22;" vertex="1" parent="1">
          <mxGeometry x="-390" y="1760" width="120" height="60" as="geometry" />
        </mxCell>
        <mxCell id="rcNtdZ8EUzeAehjGoCMw-79" value="分类" style="rounded=1;whiteSpace=wrap;html=1;fontSize=22;" vertex="1" parent="1">
          <mxGeometry x="-230" y="1760" width="120" height="60" as="geometry" />
        </mxCell>
        <mxCell id="rcNtdZ8EUzeAehjGoCMw-80" value="标签" style="rounded=1;whiteSpace=wrap;html=1;fontSize=22;" vertex="1" parent="1">
          <mxGeometry x="-70" y="1760" width="120" height="60" as="geometry" />
        </mxCell>
        <mxCell id="rcNtdZ8EUzeAehjGoCMw-81" value="友链" style="rounded=1;whiteSpace=wrap;html=1;fontSize=22;" vertex="1" parent="1">
          <mxGeometry x="720" y="1550" width="120" height="60" as="geometry" />
        </mxCell>
        <mxCell id="rcNtdZ8EUzeAehjGoCMw-82" value="关于" style="rounded=1;whiteSpace=wrap;html=1;fontSize=22;" vertex="1" parent="1">
          <mxGeometry x="923" y="1550" width="120" height="60" as="geometry" />
        </mxCell>
        <mxCell id="rcNtdZ8EUzeAehjGoCMw-83" style="edgeStyle=orthogonalEdgeStyle;rounded=0;orthogonalLoop=1;jettySize=auto;html=1;exitX=0.5;exitY=1;exitDx=0;exitDy=0;entryX=0.5;entryY=0;entryDx=0;entryDy=0;" edge="1" parent="1" source="rcNtdZ8EUzeAehjGoCMw-86" target="rcNtdZ8EUzeAehjGoCMw-89">
          <mxGeometry relative="1" as="geometry" />
        </mxCell>
        <mxCell id="rcNtdZ8EUzeAehjGoCMw-84" style="edgeStyle=orthogonalEdgeStyle;rounded=0;orthogonalLoop=1;jettySize=auto;html=1;exitX=0.5;exitY=1;exitDx=0;exitDy=0;entryX=0.5;entryY=0;entryDx=0;entryDy=0;" edge="1" parent="1" source="rcNtdZ8EUzeAehjGoCMw-86" target="rcNtdZ8EUzeAehjGoCMw-91">
          <mxGeometry relative="1" as="geometry" />
        </mxCell>
        <mxCell id="rcNtdZ8EUzeAehjGoCMw-85" style="edgeStyle=orthogonalEdgeStyle;rounded=0;orthogonalLoop=1;jettySize=auto;html=1;exitX=0.5;exitY=1;exitDx=0;exitDy=0;entryX=0.5;entryY=0;entryDx=0;entryDy=0;" edge="1" parent="1" source="rcNtdZ8EUzeAehjGoCMw-86" target="rcNtdZ8EUzeAehjGoCMw-92">
          <mxGeometry relative="1" as="geometry" />
        </mxCell>
        <mxCell id="rcNtdZ8EUzeAehjGoCMw-86" value="个人中心" style="rounded=1;whiteSpace=wrap;html=1;fontSize=22;" vertex="1" parent="1">
          <mxGeometry x="1290" y="1550" width="120" height="60" as="geometry" />
        </mxCell>
        <mxCell id="rcNtdZ8EUzeAehjGoCMw-88" value="相册" style="rounded=1;whiteSpace=wrap;html=1;fontSize=22;" vertex="1" parent="1">
          <mxGeometry x="430" y="1550" width="120" height="60" as="geometry" />
        </mxCell>
        <mxCell id="rcNtdZ8EUzeAehjGoCMw-89" value="个人信息" style="rounded=1;whiteSpace=wrap;html=1;fontSize=22;" vertex="1" parent="1">
          <mxGeometry x="1130" y="1760" width="120" height="60" as="geometry" />
        </mxCell>
        <mxCell id="rcNtdZ8EUzeAehjGoCMw-90" value="登录" style="rounded=1;whiteSpace=wrap;html=1;fontSize=22;" vertex="1" parent="1">
          <mxGeometry x="1110" y="1550" width="120" height="60" as="geometry" />
        </mxCell>
        <mxCell id="rcNtdZ8EUzeAehjGoCMw-91" value="修改密码" style="rounded=1;whiteSpace=wrap;html=1;fontSize=22;" vertex="1" parent="1">
          <mxGeometry x="1290" y="1760" width="120" height="60" as="geometry" />
        </mxCell>
        <mxCell id="rcNtdZ8EUzeAehjGoCMw-92" value="注销" style="rounded=1;whiteSpace=wrap;html=1;fontSize=22;" vertex="1" parent="1">
          <mxGeometry x="1450" y="1760" width="120" height="60" as="geometry" />
        </mxCell>
        <mxCell id="rcNtdZ8EUzeAehjGoCMw-101" style="edgeStyle=orthogonalEdgeStyle;rounded=0;orthogonalLoop=1;jettySize=auto;html=1;exitX=0.5;exitY=1;exitDx=0;exitDy=0;entryX=0.5;entryY=0;entryDx=0;entryDy=0;" edge="1" parent="1" source="rcNtdZ8EUzeAehjGoCMw-96" target="rcNtdZ8EUzeAehjGoCMw-97">
          <mxGeometry relative="1" as="geometry" />
        </mxCell>
        <mxCell id="rcNtdZ8EUzeAehjGoCMw-102" style="edgeStyle=orthogonalEdgeStyle;rounded=0;orthogonalLoop=1;jettySize=auto;html=1;exitX=0.5;exitY=1;exitDx=0;exitDy=0;entryX=0.5;entryY=0;entryDx=0;entryDy=0;" edge="1" parent="1" source="rcNtdZ8EUzeAehjGoCMw-96" target="rcNtdZ8EUzeAehjGoCMw-99">
          <mxGeometry relative="1" as="geometry" />
        </mxCell>
        <mxCell id="rcNtdZ8EUzeAehjGoCMw-96" value="规划" style="rounded=1;whiteSpace=wrap;html=1;fontSize=22;" vertex="1" parent="1">
          <mxGeometry x="740" y="220" width="120" height="60" as="geometry" />
        </mxCell>
        <mxCell id="rcNtdZ8EUzeAehjGoCMw-97" value="学习时间线" style="rounded=1;whiteSpace=wrap;html=1;fontSize=22;" vertex="1" parent="1">
          <mxGeometry x="650" y="420" width="120" height="60" as="geometry" />
        </mxCell>
        <mxCell id="rcNtdZ8EUzeAehjGoCMw-99" value="知识框架" style="rounded=1;whiteSpace=wrap;html=1;fontSize=22;" vertex="1" parent="1">
          <mxGeometry x="850" y="420" width="120" height="60" as="geometry" />
        </mxCell>
      </root>
    </mxGraphModel>
  </diagram>
</mxfile>
